<svg width="192" height="20" viewBox="0 0 192 20" fill="none" xmlns="http://www.w3.org/2000/svg">
<path d="M5.216 2.144C2.99467 2.144 1.39867 3.59067 0.428 6.484C0.409333 6.54 0.353333 6.568 0.26 6.568C0.166667 6.54933 0.12 6.512 0.12 6.456C0.194667 5.70933 0.278667 4.748 0.372 3.572C0.465333 2.37733 0.512 1.48133 0.512 0.884C0.512 0.790666 0.558667 0.744 0.652 0.744C0.764 0.744 0.82 0.790666 0.82 0.884C0.82 1.29467 1.352 1.5 2.416 1.5C4.02133 1.556 5.89733 1.584 8.044 1.584C9.14533 1.584 10.312 1.56533 11.544 1.528L13.448 1.5C14.1573 1.5 14.6707 1.45333 14.988 1.36C15.324 1.26667 15.5387 1.08 15.632 0.799999C15.6507 0.725332 15.7067 0.687999 15.8 0.687999C15.912 0.687999 15.968 0.725332 15.968 0.799999C15.912 1.36 15.8467 2.256 15.772 3.488C15.716 4.72 15.688 5.70933 15.688 6.456C15.688 6.512 15.6413 6.54 15.548 6.54C15.4547 6.54 15.3987 6.512 15.38 6.456C15.1 5.01867 14.5773 3.94533 13.812 3.236C13.0467 2.508 12.104 2.144 10.984 2.144C10.4427 2.144 10.0787 2.26533 9.892 2.508C9.724 2.732 9.64 3.17067 9.64 3.824V16.732C9.64 17.3107 9.696 17.7307 9.808 17.992C9.92 18.2533 10.1347 18.4307 10.452 18.524C10.7693 18.6173 11.2733 18.664 11.964 18.664C12.02 18.664 12.048 18.72 12.048 18.832C12.048 18.944 12.02 19 11.964 19C11.292 19 10.76 18.9907 10.368 18.972L8.044 18.944L5.776 18.972C5.384 18.9907 4.84267 19 4.152 19C4.096 19 4.068 18.944 4.068 18.832C4.068 18.72 4.096 18.664 4.152 18.664C4.824 18.664 5.31867 18.6173 5.636 18.524C5.972 18.4307 6.196 18.2533 6.308 17.992C6.43867 17.712 6.504 17.292 6.504 16.732V3.768C6.504 3.13333 6.42 2.704 6.252 2.48C6.084 2.256 5.73867 2.144 5.216 2.144ZM35.3882 18.664C35.4442 18.664 35.4722 18.72 35.4722 18.832C35.4722 18.944 35.4442 19 35.3882 19C34.7349 19 34.2122 18.9907 33.8202 18.972L31.6642 18.944L29.1442 18.972C28.8082 18.9907 28.3509 19 27.7722 19C27.7162 19 27.6882 18.944 27.6882 18.832C27.6882 18.72 27.7162 18.664 27.7722 18.664C28.4629 18.664 28.9669 18.6173 29.2842 18.524C29.6015 18.4307 29.8162 18.2533 29.9282 17.992C30.0402 17.7307 30.0962 17.3107 30.0962 16.732V10.292H21.0522V16.732C21.0522 17.292 21.1082 17.712 21.2202 17.992C21.3322 18.2533 21.5469 18.4307 21.8642 18.524C22.1815 18.6173 22.6855 18.664 23.3762 18.664C23.4135 18.664 23.4322 18.72 23.4322 18.832C23.4322 18.944 23.4135 19 23.3762 19C22.7229 19 22.2002 18.9907 21.8082 18.972L19.3722 18.944L17.2722 18.972C16.8989 18.9907 16.3855 19 15.7322 19C15.6949 19 15.6762 18.944 15.6762 18.832C15.6762 18.72 15.6949 18.664 15.7322 18.664C16.3855 18.664 16.8615 18.6173 17.1602 18.524C17.4589 18.4307 17.6642 18.2533 17.7762 17.992C17.8882 17.712 17.9442 17.292 17.9442 16.732V3.768C17.9442 3.208 17.8882 2.79733 17.7762 2.536C17.6642 2.27467 17.4589 2.09733 17.1602 2.004C16.8802 1.892 16.4229 1.836 15.7882 1.836C15.7322 1.836 15.7042 1.78 15.7042 1.668C15.7042 1.556 15.7322 1.5 15.7882 1.5L17.3002 1.528C18.1589 1.56533 18.8495 1.584 19.3722 1.584C20.0815 1.584 20.9029 1.56533 21.8362 1.528L23.3762 1.5C23.4135 1.5 23.4322 1.556 23.4322 1.668C23.4322 1.78 23.4135 1.836 23.3762 1.836C22.7042 1.836 22.2095 1.892 21.8922 2.004C21.5749 2.116 21.3509 2.312 21.2202 2.592C21.1082 2.85333 21.0522 3.264 21.0522 3.824V9.508H30.0962V3.824C30.0962 3.264 30.0402 2.85333 29.9282 2.592C29.8162 2.312 29.6015 2.116 29.2842 2.004C28.9669 1.892 28.4629 1.836 27.7722 1.836C27.7162 1.836 27.6882 1.78 27.6882 1.668C27.6882 1.556 27.7162 1.5 27.7722 1.5L29.1442 1.528C30.0775 1.56533 30.9175 1.584 31.6642 1.584C32.1682 1.584 32.8869 1.56533 33.8202 1.528L35.3882 1.5C35.4442 1.5 35.4722 1.556 35.4722 1.668C35.4722 1.78 35.4442 1.836 35.3882 1.836C34.7535 1.836 34.2775 1.892 33.9602 2.004C33.6615 2.09733 33.4562 2.27467 33.3442 2.536C33.2509 2.79733 33.2042 3.208 33.2042 3.768V16.732C33.2042 17.292 33.2509 17.712 33.3442 17.992C33.4562 18.2533 33.6615 18.4307 33.9602 18.524C34.2589 18.6173 34.7349 18.664 35.3882 18.664ZM48.063 14.548C48.063 14.5107 48.1003 14.492 48.175 14.492C48.231 14.492 48.2777 14.5107 48.315 14.548C48.371 14.5667 48.399 14.5853 48.399 14.604C48.2123 16.06 48.119 17.3853 48.119 18.58C48.119 18.7293 48.091 18.8413 48.035 18.916C47.979 18.972 47.867 19 47.699 19H35.323C35.267 19 35.239 18.944 35.239 18.832C35.239 18.72 35.267 18.664 35.323 18.664C35.9203 18.664 36.3497 18.6173 36.611 18.524C36.891 18.4307 37.0777 18.2533 37.171 17.992C37.2643 17.712 37.311 17.292 37.311 16.732V3.768C37.311 3.208 37.2643 2.79733 37.171 2.536C37.0777 2.27467 36.891 2.09733 36.611 2.004C36.331 1.892 35.9017 1.836 35.323 1.836C35.267 1.836 35.239 1.78 35.239 1.668C35.239 1.556 35.267 1.5 35.323 1.5H47.195C47.3817 1.5 47.475 1.584 47.475 1.752L47.531 5.476C47.531 5.51333 47.475 5.54133 47.363 5.56C47.2697 5.57867 47.2137 5.56 47.195 5.504C46.8963 4.42133 46.3923 3.61867 45.683 3.096C44.9737 2.57333 44.0403 2.312 42.883 2.312H42.043C41.483 2.312 41.0723 2.43333 40.811 2.676C40.5497 2.91867 40.419 3.292 40.419 3.796V9.508H42.743C43.8257 9.508 44.6563 9.32133 45.235 8.948C45.8137 8.57467 46.103 8.052 46.103 7.38C46.103 7.324 46.1497 7.296 46.243 7.296C46.355 7.296 46.411 7.324 46.411 7.38L46.383 9.9L46.411 11.244C46.4483 11.8787 46.467 12.3827 46.467 12.756C46.467 12.7933 46.411 12.812 46.299 12.812C46.187 12.812 46.131 12.7933 46.131 12.756C46.131 11.9907 45.8323 11.3933 45.235 10.964C44.6563 10.516 43.8163 10.292 42.715 10.292H40.419V16.62C40.419 17.1613 40.5217 17.5627 40.727 17.824C40.9323 18.0853 41.259 18.216 41.707 18.216H42.631C44.087 18.216 45.2537 17.9173 46.131 17.32C47.0083 16.7227 47.6523 15.7987 48.063 14.548ZM72.2307 1.5C72.2681 1.5 72.2867 1.556 72.2867 1.668C72.2867 1.78 72.2681 1.836 72.2307 1.836C71.4841 1.836 70.8961 2.13467 70.4667 2.732C70.0374 3.31067 69.8227 4.09467 69.8227 5.084V19.42C69.8227 19.476 69.7761 19.5133 69.6827 19.532C69.6081 19.5507 69.5521 19.5413 69.5147 19.504L56.3827 4.552V15.444C56.3827 16.4333 56.5881 17.2173 56.9987 17.796C57.4094 18.3747 57.9787 18.664 58.7067 18.664C58.7441 18.664 58.7627 18.72 58.7627 18.832C58.7627 18.944 58.7441 19 58.7067 19C58.1841 19 57.7827 18.9907 57.5027 18.972L55.9907 18.944L54.2547 18.972C53.9374 18.9907 53.4801 19 52.8827 19C52.8267 19 52.7987 18.944 52.7987 18.832C52.7987 18.72 52.8267 18.664 52.8827 18.664C53.7041 18.664 54.3481 18.3747 54.8147 17.796C55.3001 17.2173 55.5427 16.4333 55.5427 15.444V3.6C54.9267 2.928 54.3947 2.47067 53.9467 2.228C53.5174 1.96667 53.0694 1.836 52.6027 1.836C52.5654 1.836 52.5467 1.78 52.5467 1.668C52.5467 1.556 52.5654 1.5 52.6027 1.5L53.7787 1.528C54.0214 1.54667 54.3761 1.556 54.8427 1.556L56.9707 1.528C57.2321 1.50933 57.5494 1.5 57.9227 1.5C58.0721 1.5 58.1841 1.53733 58.2587 1.612C58.3334 1.68667 58.4641 1.84533 58.6507 2.088C58.9681 2.51733 59.1921 2.80667 59.3227 2.956L69.0107 14.128V5.084C69.0107 4.076 68.8054 3.28267 68.3947 2.704C67.9841 2.12533 67.4147 1.836 66.6867 1.836C66.6494 1.836 66.6307 1.78 66.6307 1.668C66.6307 1.556 66.6494 1.5 66.6867 1.5L67.8907 1.528C68.4881 1.56533 68.9921 1.584 69.4027 1.584C69.7761 1.584 70.2987 1.56533 70.9707 1.528L72.2307 1.5ZM84.3646 14.548C84.3646 14.5107 84.4019 14.492 84.4766 14.492C84.5326 14.492 84.5792 14.5107 84.6166 14.548C84.6726 14.5667 84.7006 14.5853 84.7006 14.604C84.5139 16.06 84.4206 17.3853 84.4206 18.58C84.4206 18.7293 84.3926 18.8413 84.3366 18.916C84.2806 18.972 84.1686 19 84.0006 19H71.6246C71.5686 19 71.5406 18.944 71.5406 18.832C71.5406 18.72 71.5686 18.664 71.6246 18.664C72.2219 18.664 72.6512 18.6173 72.9126 18.524C73.1926 18.4307 73.3792 18.2533 73.4726 17.992C73.5659 17.712 73.6126 17.292 73.6126 16.732V3.768C73.6126 3.208 73.5659 2.79733 73.4726 2.536C73.3792 2.27467 73.1926 2.09733 72.9126 2.004C72.6326 1.892 72.2032 1.836 71.6246 1.836C71.5686 1.836 71.5406 1.78 71.5406 1.668C71.5406 1.556 71.5686 1.5 71.6246 1.5H83.4966C83.6832 1.5 83.7766 1.584 83.7766 1.752L83.8326 5.476C83.8326 5.51333 83.7766 5.54133 83.6646 5.56C83.5712 5.57867 83.5152 5.56 83.4966 5.504C83.1979 4.42133 82.6939 3.61867 81.9846 3.096C81.2752 2.57333 80.3419 2.312 79.1846 2.312H78.3446C77.7846 2.312 77.3739 2.43333 77.1126 2.676C76.8512 2.91867 76.7206 3.292 76.7206 3.796V9.508H79.0446C80.1272 9.508 80.9579 9.32133 81.5366 8.948C82.1152 8.57467 82.4046 8.052 82.4046 7.38C82.4046 7.324 82.4512 7.296 82.5446 7.296C82.6566 7.296 82.7126 7.324 82.7126 7.38L82.6846 9.9L82.7126 11.244C82.7499 11.8787 82.7686 12.3827 82.7686 12.756C82.7686 12.7933 82.7126 12.812 82.6006 12.812C82.4886 12.812 82.4326 12.7933 82.4326 12.756C82.4326 11.9907 82.1339 11.3933 81.5366 10.964C80.9579 10.516 80.1179 10.292 79.0166 10.292H76.7206V16.62C76.7206 17.1613 76.8232 17.5627 77.0286 17.824C77.2339 18.0853 77.5606 18.216 78.0086 18.216H78.9326C80.3886 18.216 81.5552 17.9173 82.4326 17.32C83.3099 16.7227 83.9539 15.7987 84.3646 14.548ZM103.65 18.664C103.687 18.664 103.706 18.72 103.706 18.832C103.706 18.944 103.687 19 103.65 19H98.6658C98.2551 19 97.4898 18.2627 96.3698 16.788C95.2498 15.2947 93.8964 13.2133 92.3098 10.544C92.1604 10.5627 91.9458 10.572 91.6658 10.572C90.9378 10.572 90.4244 10.5627 90.1258 10.544V16.732C90.1258 17.3107 90.1724 17.7307 90.2658 17.992C90.3591 18.2533 90.5364 18.4307 90.7978 18.524C91.0778 18.6173 91.5164 18.664 92.1138 18.664C92.1511 18.664 92.1698 18.72 92.1698 18.832C92.1698 18.944 92.1511 19 92.1138 19C91.4978 19 91.0124 18.9907 90.6578 18.972L88.5298 18.944L86.4858 18.972C86.1124 18.9907 85.6084 19 84.9738 19C84.9178 19 84.8898 18.944 84.8898 18.832C84.8898 18.72 84.9178 18.664 84.9738 18.664C85.5711 18.664 86.0004 18.6173 86.2618 18.524C86.5418 18.4307 86.7284 18.2533 86.8218 17.992C86.9338 17.712 86.9898 17.292 86.9898 16.732V3.768C86.9898 3.208 86.9431 2.79733 86.8498 2.536C86.7564 2.27467 86.5698 2.09733 86.2898 2.004C86.0098 1.892 85.5804 1.836 85.0018 1.836C84.9644 1.836 84.9458 1.78 84.9458 1.668C84.9458 1.556 84.9644 1.5 85.0018 1.5L86.4858 1.528C87.3444 1.56533 88.0258 1.584 88.5298 1.584C89.1644 1.584 89.8271 1.556 90.5178 1.5C90.7604 1.48133 91.0591 1.46267 91.4138 1.444C91.7871 1.42533 92.1978 1.416 92.6458 1.416C94.3445 1.416 95.6605 1.73333 96.5938 2.368C97.5271 2.984 97.9938 3.852 97.9938 4.972C97.9938 5.99867 97.7138 6.932 97.1538 7.772C96.5938 8.59333 95.8471 9.256 94.9138 9.76C96.4071 12 97.6578 13.7547 98.6658 15.024C99.6738 16.2933 100.57 17.2173 101.354 17.796C102.138 18.3747 102.903 18.664 103.65 18.664ZM90.1258 9.76C90.5738 9.83467 91.1151 9.872 91.7498 9.872C92.8325 9.872 93.6071 9.57333 94.0738 8.976C94.5591 8.36 94.8018 7.38 94.8018 6.036C94.8018 4.50533 94.5778 3.45067 94.1298 2.872C93.6818 2.29333 93.0378 2.004 92.1978 2.004C91.4511 2.004 90.9191 2.144 90.6018 2.424C90.2844 2.704 90.1258 3.17067 90.1258 3.824V9.76ZM110.405 19.112C109.807 19.112 109.098 19.084 108.277 19.028C107.978 19.0093 107.605 18.9907 107.157 18.972C106.727 18.9533 106.242 18.944 105.701 18.944L103.629 18.972C103.255 18.9907 102.751 19 102.117 19C102.079 19 102.061 18.944 102.061 18.832C102.061 18.72 102.079 18.664 102.117 18.664C102.714 18.664 103.153 18.6173 103.433 18.524C103.713 18.4307 103.899 18.2533 103.993 17.992C104.105 17.712 104.161 17.292 104.161 16.732V3.768C104.161 3.208 104.105 2.79733 103.993 2.536C103.899 2.27467 103.713 2.09733 103.433 2.004C103.171 1.892 102.751 1.836 102.173 1.836C102.117 1.836 102.089 1.78 102.089 1.668C102.089 1.556 102.117 1.5 102.173 1.5L103.657 1.528C104.515 1.56533 105.197 1.584 105.701 1.584C106.466 1.584 107.25 1.556 108.053 1.5C109.023 1.46267 109.677 1.444 110.013 1.444C111.898 1.444 113.569 1.81733 115.025 2.564C116.499 3.31067 117.638 4.328 118.441 5.616C119.243 6.904 119.645 8.35067 119.645 9.956C119.645 11.7667 119.225 13.372 118.385 14.772C117.563 16.1533 116.443 17.2267 115.025 17.992C113.625 18.7387 112.085 19.112 110.405 19.112ZM110.125 18.468C111.319 18.468 112.374 18.1693 113.289 17.572C114.203 16.956 114.913 16.0507 115.417 14.856C115.939 13.6613 116.201 12.2333 116.201 10.572C116.201 8.98533 115.958 7.548 115.473 6.26C114.987 4.95333 114.297 3.92667 113.401 3.18C112.505 2.43333 111.469 2.06 110.293 2.06C109.135 2.06 108.342 2.172 107.913 2.396C107.483 2.62 107.269 3.096 107.269 3.824V16.424C107.269 17.1707 107.465 17.7027 107.857 18.02C108.249 18.3187 109.005 18.468 110.125 18.468ZM143.625 1.5C143.663 1.5 143.681 1.556 143.681 1.668C143.681 1.78 143.663 1.836 143.625 1.836C142.879 1.836 142.291 2.13467 141.861 2.732C141.432 3.31067 141.217 4.09467 141.217 5.084V19.42C141.217 19.476 141.171 19.5133 141.077 19.532C141.003 19.5507 140.947 19.5413 140.909 19.504L127.777 4.552V15.444C127.777 16.4333 127.983 17.2173 128.393 17.796C128.804 18.3747 129.373 18.664 130.101 18.664C130.139 18.664 130.157 18.72 130.157 18.832C130.157 18.944 130.139 19 130.101 19C129.579 19 129.177 18.9907 128.897 18.972L127.385 18.944L125.649 18.972C125.332 18.9907 124.875 19 124.277 19C124.221 19 124.193 18.944 124.193 18.832C124.193 18.72 124.221 18.664 124.277 18.664C125.099 18.664 125.743 18.3747 126.209 17.796C126.695 17.2173 126.937 16.4333 126.937 15.444V3.6C126.321 2.928 125.789 2.47067 125.341 2.228C124.912 1.96667 124.464 1.836 123.997 1.836C123.96 1.836 123.941 1.78 123.941 1.668C123.941 1.556 123.96 1.5 123.997 1.5L125.173 1.528C125.416 1.54667 125.771 1.556 126.237 1.556L128.365 1.528C128.627 1.50933 128.944 1.5 129.317 1.5C129.467 1.5 129.579 1.53733 129.653 1.612C129.728 1.68667 129.859 1.84533 130.045 2.088C130.363 2.51733 130.587 2.80667 130.717 2.956L140.405 14.128V5.084C140.405 4.076 140.2 3.28267 139.789 2.704C139.379 2.12533 138.809 1.836 138.081 1.836C138.044 1.836 138.025 1.78 138.025 1.668C138.025 1.556 138.044 1.5 138.081 1.5L139.285 1.528C139.883 1.56533 140.387 1.584 140.797 1.584C141.171 1.584 141.693 1.56533 142.365 1.528L143.625 1.5ZM155.759 14.548C155.759 14.5107 155.796 14.492 155.871 14.492C155.927 14.492 155.974 14.5107 156.011 14.548C156.067 14.5667 156.095 14.5853 156.095 14.604C155.908 16.06 155.815 17.3853 155.815 18.58C155.815 18.7293 155.787 18.8413 155.731 18.916C155.675 18.972 155.563 19 155.395 19H143.019C142.963 19 142.935 18.944 142.935 18.832C142.935 18.72 142.963 18.664 143.019 18.664C143.616 18.664 144.046 18.6173 144.307 18.524C144.587 18.4307 144.774 18.2533 144.867 17.992C144.96 17.712 145.007 17.292 145.007 16.732V3.768C145.007 3.208 144.96 2.79733 144.867 2.536C144.774 2.27467 144.587 2.09733 144.307 2.004C144.027 1.892 143.598 1.836 143.019 1.836C142.963 1.836 142.935 1.78 142.935 1.668C142.935 1.556 142.963 1.5 143.019 1.5H154.891C155.078 1.5 155.171 1.584 155.171 1.752L155.227 5.476C155.227 5.51333 155.171 5.54133 155.059 5.56C154.966 5.57867 154.91 5.56 154.891 5.504C154.592 4.42133 154.088 3.61867 153.379 3.096C152.67 2.57333 151.736 2.312 150.579 2.312H149.739C149.179 2.312 148.768 2.43333 148.507 2.676C148.246 2.91867 148.115 3.292 148.115 3.796V9.508H150.439C151.522 9.508 152.352 9.32133 152.931 8.948C153.51 8.57467 153.799 8.052 153.799 7.38C153.799 7.324 153.846 7.296 153.939 7.296C154.051 7.296 154.107 7.324 154.107 7.38L154.079 9.9L154.107 11.244C154.144 11.8787 154.163 12.3827 154.163 12.756C154.163 12.7933 154.107 12.812 153.995 12.812C153.883 12.812 153.827 12.7933 153.827 12.756C153.827 11.9907 153.528 11.3933 152.931 10.964C152.352 10.516 151.512 10.292 150.411 10.292H148.115V16.62C148.115 17.1613 148.218 17.5627 148.423 17.824C148.628 18.0853 148.955 18.216 149.403 18.216H150.327C151.783 18.216 152.95 17.9173 153.827 17.32C154.704 16.7227 155.348 15.7987 155.759 14.548ZM180.896 1.5C180.934 1.5 180.952 1.556 180.952 1.668C180.952 1.78 180.934 1.836 180.896 1.836C180.206 1.836 179.552 2.13467 178.936 2.732C178.339 3.31067 177.844 4.11333 177.452 5.14L172.272 18.972C172.254 19.0467 172.151 19.084 171.964 19.084C171.778 19.084 171.675 19.0467 171.656 18.972L168.072 11.384L165.244 18.972C165.226 19.0467 165.123 19.084 164.936 19.084C164.75 19.084 164.647 19.0467 164.628 18.972L157.488 3.824C157.208 3.22667 156.975 2.79733 156.788 2.536C156.62 2.27467 156.424 2.09733 156.2 2.004C155.995 1.892 155.715 1.836 155.36 1.836C155.304 1.836 155.276 1.78 155.276 1.668C155.276 1.556 155.304 1.5 155.36 1.5C155.64 1.5 155.836 1.50933 155.948 1.528C156.322 1.56533 156.807 1.584 157.404 1.584C158.655 1.584 159.71 1.56533 160.568 1.528C160.811 1.50933 161.11 1.5 161.464 1.5C161.52 1.5 161.548 1.556 161.548 1.668C161.548 1.78 161.52 1.836 161.464 1.836C160.998 1.836 160.662 1.88267 160.456 1.976C160.27 2.06933 160.176 2.23733 160.176 2.48C160.176 2.79733 160.391 3.41333 160.82 4.328L165.86 15.024L167.624 10.404L164.516 3.824C164.199 3.152 163.9 2.65733 163.62 2.34C163.34 2.004 163.042 1.836 162.724 1.836C162.668 1.836 162.64 1.78 162.64 1.668C162.64 1.556 162.668 1.5 162.724 1.5C162.911 1.5 163.126 1.51867 163.368 1.556C163.63 1.57467 163.994 1.584 164.46 1.584C165.524 1.584 166.411 1.56533 167.12 1.528C167.307 1.50933 167.55 1.5 167.848 1.5C167.904 1.5 167.932 1.556 167.932 1.668C167.932 1.78 167.904 1.836 167.848 1.836C167.587 1.836 167.391 1.87333 167.26 1.948C167.148 2.004 167.092 2.116 167.092 2.284C167.092 2.60133 167.344 3.28267 167.848 4.328L169.08 6.932L169.78 5.056C170.191 3.992 170.396 3.18933 170.396 2.648C170.396 2.10667 170.163 1.836 169.696 1.836C169.64 1.836 169.612 1.78 169.612 1.668C169.612 1.556 169.64 1.5 169.696 1.5C169.846 1.5 170.004 1.51867 170.172 1.556C170.359 1.57467 170.807 1.584 171.516 1.584C171.834 1.584 172.216 1.56533 172.664 1.528L173.7 1.5C173.738 1.5 173.756 1.556 173.756 1.668C173.756 1.78 173.738 1.836 173.7 1.836C172.45 1.836 171.414 2.93733 170.592 5.14L169.556 7.912L172.916 14.996L176.528 5.336C176.752 4.73867 176.864 4.19733 176.864 3.712C176.864 3.13333 176.715 2.676 176.416 2.34C176.136 2.004 175.754 1.836 175.268 1.836C175.212 1.836 175.184 1.78 175.184 1.668C175.184 1.556 175.212 1.5 175.268 1.5L176.556 1.528C177.228 1.56533 177.844 1.584 178.404 1.584C178.778 1.584 179.207 1.56533 179.692 1.528L180.896 1.5ZM183.504 4.328C183.504 5 183.672 5.59733 184.008 6.12C184.363 6.64267 184.792 7.1 185.296 7.492C185.8 7.884 186.481 8.36 187.34 8.92C188.273 9.51733 189.02 10.04 189.58 10.488C190.14 10.936 190.616 11.4867 191.008 12.14C191.4 12.7747 191.596 13.512 191.596 14.352C191.596 15.3227 191.335 16.1907 190.812 16.956C190.289 17.7027 189.561 18.2907 188.628 18.72C187.713 19.1307 186.687 19.336 185.548 19.336C184.708 19.336 183.831 19.224 182.916 19C182.001 18.7573 181.385 18.496 181.068 18.216C180.975 18.1413 180.9 18.076 180.844 18.02C180.807 17.9453 180.788 17.8333 180.788 17.684L180.704 13.232V13.204C180.704 13.1293 180.751 13.092 180.844 13.092C180.937 13.0733 180.993 13.1013 181.012 13.176C181.572 14.3147 182.057 15.2387 182.468 15.948C182.897 16.6573 183.429 17.2827 184.064 17.824C184.717 18.3653 185.455 18.636 186.276 18.636C187.023 18.636 187.639 18.44 188.124 18.048C188.609 17.6373 188.852 16.9467 188.852 15.976C188.852 15.1547 188.665 14.436 188.292 13.82C187.937 13.204 187.499 12.6813 186.976 12.252C186.453 11.8227 185.735 11.3093 184.82 10.712C183.924 10.1333 183.224 9.63867 182.72 9.228C182.235 8.81733 181.815 8.32267 181.46 7.744C181.105 7.16533 180.928 6.484 180.928 5.7C180.928 4.71067 181.208 3.88 181.768 3.208C182.347 2.51733 183.084 2.01333 183.98 1.696C184.876 1.36 185.819 1.192 186.808 1.192C187.461 1.192 188.124 1.25733 188.796 1.388C189.468 1.5 190.009 1.64 190.42 1.808C190.588 1.88267 190.7 1.96667 190.756 2.06C190.812 2.13467 190.84 2.23733 190.84 2.368V6.484C190.84 6.54 190.793 6.58667 190.7 6.624C190.607 6.64267 190.551 6.624 190.532 6.568L190.308 6.036C189.841 4.86 189.291 3.86133 188.656 3.04C188.04 2.21867 187.172 1.808 186.052 1.808C185.305 1.808 184.689 2.02267 184.204 2.452C183.737 2.88133 183.504 3.50667 183.504 4.328Z" fill="black"/>
</svg>
